<svg xmlns="http://www.w3.org/2000/svg" width="159" height="92" viewBox="0 0 159 92"><g><g><g><path fill="#005288" d="M0 0h159v92H0z"/></g><g><g><g><path fill="#fff" d="M26.09 21.898h-.33L21.21 15.5v10.314h-1.547V13.27h1.913l4.362 6.47 4.38-6.47h1.869V25.85H30.64V15.536zm10.575-8.63h1.565v12.546h-1.565zm7.134 0l7.697 9.634v-9.633h1.546V25.85H51.97l-7.715-9.597v9.561h-1.547V13.27zm14.813 0l7.66 9.634v-9.633h1.583V25.85h-1.082l-7.705-9.597v9.561H57.52V13.27zm13.722 0h8.823v1.444H73.88v3.933h6.973v1.452H73.88v4.266h7.59v1.54h-9.083zm20.57 2.752l.015-.01.029.037m-.029-.037a4.18 4.18 0 0 0-3.547-1.585c-1.6 0-3.299.636-3.299 2.16 0 1.344 1.556 1.738 3.442 2.043 2.476.394 4.899.896 4.881 3.736-.018 2.84-2.709 3.737-5.113 3.737-2.226 0-4.345-.806-5.31-2.903l1.296-.762a4.539 4.539 0 0 0 4.032 2.213c1.546 0 3.575-.484 3.575-2.338.063-1.56-1.69-2.017-3.575-2.303-2.423-.377-4.738-.86-4.774-3.486-.036-2.626 2.637-3.522 4.81-3.522 1.868 0 3.638.376 4.746 2.285zm10.783-2.956c4.246.018 6.374 3.28 6.374 6.541 0 3.262-2.083 6.506-6.392 6.506s-6.383-3.199-6.383-6.506c0-3.647 2.432-6.541 6.401-6.541m4.783 6.541c.017-2.554-1.592-5.099-4.783-5.099-3.191 0-4.845 2.348-4.845 5.1 0 2.553 1.546 5.035 4.845 5.035 3.299 0 4.783-2.553 4.783-5.036m3.441-4.92V13.27h10.12v1.407h-4.291V25.85h-1.538V14.676zm18.111-1.406l5.632 12.545h-1.69l-1.233-2.769h-7.151l-1.216 2.77h-1.743l5.631-12.546zm-.894 1.586l-2.976 6.792h5.953z"/></g><g><path fill="#fff" d="M21.21 44.367h-1.547V31.749h5.703c5.775 0 5.775 8.513 0 8.513H21.21zm4.161-5.556c3.706 0 3.706-5.61 0-5.61H21.21v5.61h4.162m12.296.985h-3.03v4.57H33.08V31.75h5.703a3.937 3.937 0 0 1 3.013 1.069 3.957 3.957 0 0 1 1.233 2.955c.072 1-.271 1.985-.948 2.723a3.626 3.626 0 0 1-2.627 1.175l4.112 4.696H41.6zm1.037-1.37a2.481 2.481 0 0 0 1.977-.657 2.494 2.494 0 0 0 .785-1.933 2.602 2.602 0 0 0-.758-1.93 2.59 2.59 0 0 0-1.924-.759h-4.148v5.287h4.077m8.286-6.613h1.556v12.546h-1.556zm6.473-.072l4.281 10.754 4.327-10.754h1.717l-5.185 12.618h-1.68l-5.159-12.618zm18.7.072l5.633 12.546h-1.699l-1.243-2.77h-7.151l-1.225 2.77H64.79l5.667-12.618zm-.875 1.506l-2.977 6.792h5.998zm7.098-.18V31.75h10.128v1.398h-4.291v11.22h-1.538V33.183zm13.239-1.398h8.823v1.434h-7.286v3.934h6.982v1.46h-6.982v4.257h7.572v1.533h-9.11z"/></g><g><path fill="#fff" d="M30.1 61.13a6.57 6.57 0 0 1-4.666 1.864c-4.425 0-6.543-3.074-6.543-6.416a6.28 6.28 0 0 1 1.836-4.712 6.25 6.25 0 0 1 4.707-1.821 6.49 6.49 0 0 1 4.595 1.89l-1.082 1.004a4.973 4.973 0 0 0-3.513-1.406 4.732 4.732 0 0 0-3.618 1.393 4.756 4.756 0 0 0-1.37 3.634 4.72 4.72 0 0 0 1.386 3.59 4.696 4.696 0 0 0 3.593 1.356 5.08 5.08 0 0 0 3.576-1.46l1.1 1.084m8.751-11.094c4.247.018 6.365 3.253 6.347 6.542-.018 3.288-2.056 6.505-6.365 6.505-4.308 0-6.382-3.199-6.382-6.505 0-3.648 2.431-6.542 6.4-6.542m4.783 6.542c.018-2.554-1.591-5.108-4.783-5.108-3.191 0-4.845 2.357-4.845 5.108 0 2.553 1.547 5.036 4.845 5.036 3.299 0 4.783-2.554 4.783-5.036m6.82 4.812h6.875v1.407h-8.439V50.25h1.565zm11.532 0h6.83v1.407h-8.394V50.25h1.564zm9.968-11.175h8.823v1.443h-7.286v3.934h6.982v1.452h-6.982v4.265h7.572v1.488h-9.11zm22.125 2.68a5.544 5.544 0 0 0-3.71-1.479c-3.191 0-4.98 2.428-4.98 5.197a4.72 4.72 0 0 0 1.399 3.604 4.696 4.696 0 0 0 3.617 1.343 5.106 5.106 0 0 0 3.424-1.282v-2.984h-3.907v-1.38h5.364v4.983a6.358 6.358 0 0 1-4.863 2.133c-4.461 0-6.544-3.038-6.544-6.417-.018-3.754 2.44-6.649 6.526-6.649a6.527 6.527 0 0 1 4.613 1.891zm5.06-2.68h8.823v1.443h-7.277v3.934h6.973v1.452h-6.973v4.265h7.599v1.488H99.14z"/></g><g><path fill="#fff" d="M30.104 79.596a6.544 6.544 0 0 1-4.667 1.873c-4.425 0-6.543-3.055-6.543-6.416a6.281 6.281 0 0 1 1.812-4.753 6.25 6.25 0 0 1 4.731-1.842c1.72 0 3.371.679 4.595 1.89l-1.09 1.031a4.964 4.964 0 0 0-3.514-1.398 4.995 4.995 0 0 0-4.777 4.996 4.995 4.995 0 0 0 4.777 4.996 5.107 5.107 0 0 0 3.576-1.452l1.1 1.075m8.751-11.13c4.247.019 6.365 3.263 6.347 6.551-.018 3.29-2.056 6.506-6.365 6.506-4.308 0-6.382-3.199-6.382-6.506 0-3.656 2.431-6.55 6.4-6.55m4.783 6.55c.018-2.554-1.591-5.107-4.783-5.107-3.191 0-4.845 2.356-4.845 5.107 0 2.545 1.547 5.028 4.845 5.028 3.299 0 4.783-2.554 4.783-5.028M58.996 68.7v7.549a4.876 4.876 0 0 1-1.362 3.779 4.859 4.859 0 0 1-3.734 1.468 4.921 4.921 0 0 1-3.746-1.47 4.939 4.939 0 0 1-1.403-3.777v-7.55h1.547v7.532c0 1.978 1.6 3.582 3.576 3.582a3.579 3.579 0 0 0 3.575-3.582v-7.55h1.529zm5.426-.018l7.697 9.642v-9.597h1.546v12.545h-1.081l-7.706-9.606v9.561H63.33V68.682zm24.199 10.914a6.544 6.544 0 0 1-4.702 1.846c-4.425 0-6.544-3.073-6.544-6.416a6.281 6.281 0 0 1 1.823-4.735 6.25 6.25 0 0 1 4.72-1.833c1.721 0 3.372.679 4.596 1.89l-1.055 1.031a4.973 4.973 0 0 0-3.513-1.398 4.985 4.985 0 0 0-4.496 2.435 5.01 5.01 0 0 0 0 5.122 4.985 4.985 0 0 0 4.496 2.435c1.335 0 2.617-.52 3.575-1.452l1.1 1.075m3.406-10.914h1.555v12.545h-1.555zm7.598 11.13h6.875v1.415h-8.43V68.682h1.555z"/></g></g></g></g></g></svg>